<?xml version="1.0" encoding="UTF-8"?>
<svg width="32px" height="45px" viewBox="0 0 32 45" version="1.1" xmlns="http://www.w3.org/2000/svg" xmlns:xlink="http://www.w3.org/1999/xlink">
    <title>编组 23备份 2</title>
    <g id="页面-1" stroke="none" stroke-width="1" fill="none" fill-rule="evenodd">
        <g id="座位排布切图" transform="translate(-718.000000, -108.000000)" fill="#7AA4CA">
            <g id="编组-23备份-2" transform="translate(718.000000, 115.000000)">
                <rect id="矩形备份-36" x="-2.21156427e-13" y="8.64864865" width="6" height="6" rx="1"></rect>
                <rect id="矩形备份-42" x="-2.21156427e-13" y="6.88338275e-13" width="6" height="6" rx="1"></rect>
                <rect id="矩形备份-91" x="25.5945946" y="25.5945946" width="6" height="6" rx="1"></rect>
                <rect id="矩形备份-38" x="-2.21156427e-13" y="17.2972973" width="6" height="6" rx="1"></rect>
                <rect id="矩形备份-64" x="25.5945946" y="8.2972973" width="6" height="6" rx="1"></rect>
                <rect id="矩形备份-68" x="25.5945946" y="16.9459459" width="6" height="6" rx="1"></rect>
                <rect id="矩形备份-72" x="8.64864865" y="6.88338275e-13" width="6" height="6" rx="1"></rect>
                <rect id="矩形备份-48" x="8.2972973" y="25.5945946" width="6" height="6" rx="1"></rect>
                <rect id="矩形备份-76" x="17.2972973" y="6.88338275e-13" width="6" height="6" rx="1"></rect>
                <rect id="矩形备份-52" x="16.9459459" y="25.5945946" width="6" height="6" rx="1"></rect>
            </g>
        </g>
    </g>
</svg>