<?xml version="1.0" encoding="UTF-8"?>
<svg width="34px" height="45px" viewBox="0 0 34 45" version="1.1" xmlns="http://www.w3.org/2000/svg" xmlns:xlink="http://www.w3.org/1999/xlink">
    <title>编组 57</title>
    <g id="页面-1" stroke="none" stroke-width="1" fill="none" fill-rule="evenodd">
        <g id="座位排布切图" transform="translate(-551.000000, -108.000000)" fill="#7AA4CA">
            <g id="编组-57" transform="translate(551.000000, 114.000000)">
                <g id="编组-56" transform="translate(0.000000, 27.818182)">
                    <rect id="矩形" x="0" y="0" width="6.18181818" height="6.18181818" rx="0.782222222"></rect>
                    <rect id="矩形备份-488" x="9.27272727" y="0" width="6.18181818" height="6.18181818" rx="0.782222222"></rect>
                    <rect id="矩形备份-489" x="18.5454545" y="0" width="6.18181818" height="6.18181818" rx="0.782222222"></rect>
                    <rect id="矩形备份-490" x="27.8181818" y="0" width="6.18181818" height="6.18181818" rx="0.782222222"></rect>
                </g>
                <g id="编组-56备份" transform="translate(0.000000, 18.545455)">
                    <rect id="矩形" x="0" y="0" width="6.18181818" height="6.18181818" rx="0.782222222"></rect>
                    <rect id="矩形备份-488" x="9.27272727" y="0" width="6.18181818" height="6.18181818" rx="0.782222222"></rect>
                    <rect id="矩形备份-489" x="18.5454545" y="0" width="6.18181818" height="6.18181818" rx="0.782222222"></rect>
                    <rect id="矩形备份-490" x="27.8181818" y="0" width="6.18181818" height="6.18181818" rx="0.782222222"></rect>
                </g>
                <g id="编组-56备份-2" transform="translate(0.000000, 9.272727)">
                    <rect id="矩形" x="0" y="0" width="6.18181818" height="6.18181818" rx="0.782222222"></rect>
                    <rect id="矩形备份-488" x="9.27272727" y="0" width="6.18181818" height="6.18181818" rx="0.782222222"></rect>
                    <rect id="矩形备份-489" x="18.5454545" y="0" width="6.18181818" height="6.18181818" rx="0.782222222"></rect>
                    <rect id="矩形备份-490" x="27.8181818" y="0" width="6.18181818" height="6.18181818" rx="0.782222222"></rect>
                </g>
                <g id="编组-56备份-3">
                    <rect id="矩形" x="0" y="0" width="6.18181818" height="6.18181818" rx="0.782222222"></rect>
                    <rect id="矩形备份-488" x="9.27272727" y="0" width="6.18181818" height="6.18181818" rx="0.782222222"></rect>
                    <rect id="矩形备份-489" x="18.5454545" y="0" width="6.18181818" height="6.18181818" rx="0.782222222"></rect>
                    <rect id="矩形备份-490" x="27.8181818" y="0" width="6.18181818" height="6.18181818" rx="0.782222222"></rect>
                </g>
            </g>
        </g>
    </g>
</svg>