<?xml version="1.0" encoding="UTF-8"?>
<svg width="40px" height="48px" viewBox="0 0 40 48" version="1.1" xmlns="http://www.w3.org/2000/svg" xmlns:xlink="http://www.w3.org/1999/xlink">
    <title>编组</title>
    <g id="页面-1" stroke="none" stroke-width="1" fill="none" fill-rule="evenodd">
        <g id="座位排布切图" transform="translate(-385.000000, -338.000000)" fill-rule="nonzero">
            <g id="编组" transform="translate(406.000000, 364.000000) scale(-1, 1) translate(-406.000000, -364.000000) translate(387.000000, 342.000000)">
                <path d="M2.06740605,1.92219922 L20.9309009,0.0507965633 C21.8250858,-0.171117319 22.7192706,0.355366651 22.9430433,1.21472145 C22.9711281,1.35308073 22.9992129,1.51929153 22.9992129,1.68550234 L22.9992129,42.3369933 C23.0272978,43.251602 22.300263,44 21.3784464,44 C21.26656,44 21.1546737,44 21.0432403,43.9721483 L2.17974538,41.5082252 C0.949901513,41.2589089 0.0280848087,40.2054918 0,38.9584615 L0,4.47196291 C0.0276318724,3.25233495 0.866099978,2.19891779 2.06740605,1.92219922 Z M16.2081192,18.4781451 C15.0625298,18.4781451 14.0288268,20.0023431 14.0288268,21.9420682 C14.0288268,23.8817933 14.9510965,25.4059913 16.2081192,25.4059913 C17.465595,25.4059913 18.3878647,23.8817933 18.3878647,21.9420682 C18.3597798,20.0297454 17.3260768,18.4781451 16.2081192,18.4781451 Z" id="形状备份" fill="#5EB3CC"></path>
                <path d="M27,41 L34.9026575,41 C36.61063,41 38,39.671633 38,38.0386522 L38,5.96134776 C38,4.32836704 36.6106301,3 34.9026575,3 L27,3" id="路径" stroke="#89CFE3" stroke-width="3" stroke-linecap="round"></path>
            </g>
        </g>
    </g>
</svg>