<?xml version="1.0" encoding="UTF-8"?>
<svg width="45px" height="45px" viewBox="0 0 45 45" version="1.1" xmlns="http://www.w3.org/2000/svg" xmlns:xlink="http://www.w3.org/1999/xlink">
    <title>编组 28备份</title>
    <g id="页面-1" stroke="none" stroke-width="1" fill="none" fill-rule="evenodd">
        <g id="座位排布切图" transform="translate(-379.000000, -108.000000)">
            <g id="编组-28备份" transform="translate(379.000000, 108.000000)">
                <path d="M35.1973002,12.4328203 L35.1973002,33.4186992 L35.1973002,33.4186992 C35.1973002,34.6153161 34.0332406,35.5853659 32.5973002,35.5853659 L11.7973002,35.5853659 C10.3613599,35.5853659 9.19730025,34.6153161 9.19730025,33.4186992 L9.19730025,12.4328203 C9.19730025,10.8602146 10.472149,9.58536585 12.0447547,9.58536585 L32.3498458,9.58536585 C33.9224515,9.58536585 35.1973002,10.8602146 35.1973002,12.4328203 Z" id="路径" fill="#EBEBEB"></path>
                <rect id="矩形" fill="#7AA4CA" x="38.4545257" y="10.5" width="6" height="6" rx="0.782222222"></rect>
                <path d="M10.7260521,38.79 L15.1616076,38.79 C15.593617,38.79 15.9438299,39.1402128 15.9438299,39.5722222 L15.9438299,44.0077778 C15.9438299,44.4397872 15.593617,44.79 15.1616076,44.79 L10.7260521,44.79 C10.2940427,44.79 9.94382987,44.4397872 9.94382987,44.0077778 L9.94382987,39.5722222 C9.94382987,39.1402128 10.2940427,38.79 10.7260521,38.79 Z" id="矩形备份-482" fill="#7AA4CA" transform="translate(12.943830, 41.790000) rotate(-90.000000) translate(-12.943830, -41.790000) "></path>
                <path d="M10.7260521,0.39 L15.1616076,0.39 C15.593617,0.39 15.9438299,0.740212818 15.9438299,1.17222222 L15.9438299,5.60777778 C15.9438299,6.03978718 15.593617,6.39 15.1616076,6.39 L10.7260521,6.39 C10.2940427,6.39 9.94382987,6.03978718 9.94382987,5.60777778 L9.94382987,1.17222222 C9.94382987,0.740212818 10.2940427,0.39 10.7260521,0.39 Z" id="矩形备份-485" fill="#7AA4CA" transform="translate(12.943830, 3.390000) rotate(-90.000000) translate(-12.943830, -3.390000) "></path>
                <rect id="矩形备份-479" fill="#7AA4CA" x="0" y="10.5" width="6" height="6" rx="0.782222222"></rect>
                <rect id="矩形备份-477" fill="#7AA4CA" x="38.4545257" y="20" width="6" height="6" rx="0.782222222"></rect>
                <path d="M20.2960521,38.79 L24.7316076,38.79 C25.163617,38.79 25.5138299,39.1402128 25.5138299,39.5722222 L25.5138299,44.0077778 C25.5138299,44.4397872 25.163617,44.79 24.7316076,44.79 L20.2960521,44.79 C19.8640427,44.79 19.5138299,44.4397872 19.5138299,44.0077778 L19.5138299,39.5722222 C19.5138299,39.1402128 19.8640427,38.79 20.2960521,38.79 Z" id="矩形备份-483" fill="#7AA4CA" transform="translate(22.513830, 41.790000) rotate(-90.000000) translate(-22.513830, -41.790000) "></path>
                <path d="M20.299548,0.39 L24.7351036,0.39 C25.167113,0.39 25.5173258,0.740212818 25.5173258,1.17222222 L25.5173258,5.60777778 C25.5173258,6.03978718 25.167113,6.39 24.7351036,6.39 L20.299548,6.39 C19.8675386,6.39 19.5173258,6.03978718 19.5173258,5.60777778 L19.5173258,1.17222222 C19.5173258,0.740212818 19.8675386,0.39 20.299548,0.39 Z" id="矩形备份-486" fill="#7AA4CA" transform="translate(22.517326, 3.390000) rotate(-90.000000) translate(-22.517326, -3.390000) "></path>
                <rect id="矩形备份-480" fill="#7AA4CA" x="0" y="20" width="6" height="6" rx="0.782222222"></rect>
                <rect id="矩形备份-478" fill="#7AA4CA" x="38.4545257" y="29.5" width="6" height="6" rx="0.782222222"></rect>
                <path d="M29.8660521,38.79 L34.3016076,38.79 C34.733617,38.79 35.0838299,39.1402128 35.0838299,39.5722222 L35.0838299,44.0077778 C35.0838299,44.4397872 34.733617,44.79 34.3016076,44.79 L29.8660521,44.79 C29.4340427,44.79 29.0838299,44.4397872 29.0838299,44.0077778 L29.0838299,39.5722222 C29.0838299,39.1402128 29.4340427,38.79 29.8660521,38.79 Z" id="矩形备份-484" fill="#7AA4CA" transform="translate(32.083830, 41.790000) rotate(-90.000000) translate(-32.083830, -41.790000) "></path>
                <path d="M29.873044,0.39 L34.3085995,0.39 C34.7406089,0.39 35.0908217,0.740212818 35.0908217,1.17222222 L35.0908217,5.60777778 C35.0908217,6.03978718 34.7406089,6.39 34.3085995,6.39 L29.873044,6.39 C29.4410346,6.39 29.0908217,6.03978718 29.0908217,5.60777778 L29.0908217,1.17222222 C29.0908217,0.740212818 29.4410346,0.39 29.873044,0.39 Z" id="矩形备份-487" fill="#7AA4CA" transform="translate(32.090822, 3.390000) rotate(-90.000000) translate(-32.090822, -3.390000) "></path>
                <rect id="矩形备份-481" fill="#7AA4CA" x="0" y="29.5" width="6" height="6" rx="0.782222222"></rect>
            </g>
        </g>
    </g>
</svg>