<?xml version="1.0" encoding="UTF-8"?>
<svg width="50px" height="48px" viewBox="0 0 50 48" version="1.1" xmlns="http://www.w3.org/2000/svg" xmlns:xlink="http://www.w3.org/1999/xlink">
    <title>编组 14</title>
    <g id="页面-1" stroke="none" stroke-width="1" fill="none" fill-rule="evenodd">
        <g id="座位排布切图" transform="translate(-715.000000, -480.000000)" fill-rule="nonzero">
            <g id="编组-14" transform="translate(715.000000, 487.000000)">
                <g id="屏幕">
                    <path d="M-1.03028697e-13,2.58423493 L-1.03028697e-13,30.2000788 C-1.03028697e-13,31.6188744 1.25488009,32.7843137 2.84439487,32.7843137 L47.1556051,32.7843137 C48.7172337,32.7843137 50,31.6442101 50,30.2000788 L50,2.58423493 C50,1.16543928 48.7451199,0 47.1556051,0 L2.84439487,0 C1.28276631,0 -1.03028697e-13,1.16543928 -1.03028697e-13,2.58423493 Z" id="形状" fill="#A6A7B9"></path>
                    <path d="M33.7288136,37.4627451 L33.7288136,36.9404483 C33.7288136,35.876396 32.8813559,34.9848927 31.8079096,34.9848927 L18.6723164,34.9848927 C17.6271186,34.9848927 16.7514124,35.8476378 16.7514124,36.9404483 L16.7514124,37.4627451 L8.38418079,37.4627451 C8.15819209,37.4627451 7.96045198,37.6640523 7.96045198,37.8941176 L7.93220339,37.8941176 L7.93220339,40.6261438 L43.0282486,40.6261438 L43.0282486,40.1947712 L43.0564972,40.1947712 L43.0564972,37.8941176 C43.0282486,37.6352941 42.8587571,37.4627451 42.6045198,37.4627451 L33.7288136,37.4627451 Z" id="路径" fill="#9899B5"></path>
                </g>
                <path d="M19.54922,12.8737783 C20.1424474,12.6339505 20.8229068,12.7330058 21.3185281,13.1313388 L27.8005874,18.3458096 L34.9125575,9.63393809 C35.1986396,9.28338858 35.6163463,9.05878201 36.0729155,9.00999777 C36.5294848,8.96121353 36.9871222,9.09228994 37.3441982,9.37411826 L37.3557774,9.38315546 C38.0970651,9.96848575 38.2159479,11.0274344 37.6221,11.7554234 L29.5907381,21.5924277 C29.304656,21.9429772 28.8869493,22.1675838 28.4303801,22.216368 C27.9738108,22.2651522 27.5161734,22.1340758 27.1590974,21.8522475 L27.1475182,21.8432103 C27.1255112,21.8271352 27.1038908,21.8105625 27.0826744,21.7935056 L20.3921887,16.4095871 L15.0055256,22.4215918 C14.4211412,23.0728412 13.4275932,23.1897404 12.7012566,22.6927082 L12.6317812,22.6452628 C12.2873749,22.4098932 12.0616595,22.0428805 12.010862,21.6356497 C11.9600645,21.2284189 12.0889668,20.8193054 12.3654586,20.5102217 L18.7571999,13.3753435 C18.9684234,13.1397377 19.2426462,12.9660797 19.54922,12.8737783 L19.54922,12.8737783 Z" id="路径" fill="#FFFFFF"></path>
            </g>
        </g>
    </g>
</svg>