<?xml version="1.0" encoding="UTF-8"?>
<svg width="30px" height="26px" viewBox="0 0 30 26" version="1.1" xmlns="http://www.w3.org/2000/svg" xmlns:xlink="http://www.w3.org/1999/xlink">
    <title>编组 14备份 9</title>
    <g id="页面-1" stroke="none" stroke-width="1" fill="none" fill-rule="evenodd">
        <g id="座位排布切图" transform="translate(-226.000000, -870.000000)">
            <g id="编组-3" transform="translate(225.000000, 867.000000)">
                <rect id="矩形备份-200" fill-opacity="0" fill="#F2F4F5" x="0" y="0" width="32" height="32" rx="2"></rect>
                <path d="M24.948245,3.6 C25.5928103,3.6 26.1798085,3.85460274 26.6119388,4.27022466 C27.0440691,4.68584658 27.3213316,5.26248768 27.3464255,5.9065644 L27.3464255,5.9065644 L28.1126592,25.5732311 C28.1384608,26.2354703 27.8933942,26.8454736 27.4763174,27.2963674 C27.0615519,27.7447626 26.4766774,28.0358068 25.8189173,28.0643937 L25.8189173,28.0643937 L6.28613045,28.0666667 C5.62338875,28.0666667 5.02338875,27.7980375 4.58907418,27.3637229 C4.15716652,26.9318153 3.88911296,26.3360535 3.88615518,25.6776794 L3.88615518,25.6776794 L4.6541837,5.9065644 C4.6792776,5.26248768 4.95654004,4.68584658 5.38867035,4.27022466 C5.82080066,3.85460274 6.40779884,3.6 7.05236422,3.6 L7.05236422,3.6 Z" id="矩形" stroke="#333E5E" stroke-width="1.2" fill="#FFFFFF" transform="translate(16.000305, 15.833333) scale(1, -1) translate(-16.000305, -15.833333) "></path>
                <path d="M28.0003046,24.6 C28.3869039,24.6 28.7369039,24.7567003 28.9902541,25.0100505 C29.2436042,25.2634007 29.4003046,25.6134007 29.4003046,26 L29.4003046,26 L29.4003046,27 C29.4003046,27.3865993 29.2436042,27.7365993 28.9902541,27.9899495 C28.7369039,28.2432997 28.3869039,28.4 28.0003046,28.4 L28.0003046,28.4 L4.00030459,28.4 C3.61370526,28.4 3.26370526,28.2432997 3.01035509,27.9899495 C2.75700492,27.7365993 2.60030459,27.3865993 2.60030459,27 L2.60030459,27 L2.60030459,26 C2.60030459,25.6134007 2.75700492,25.2634007 3.01035509,25.0100505 C3.26370526,24.7567003 3.61370526,24.6 4.00030459,24.6 L4.00030459,24.6 Z" id="矩形" stroke="#333E5E" stroke-width="1.2" fill="#FCFCFC" transform="translate(16.000305, 26.500000) scale(1, -1) translate(-16.000305, -26.500000) "></path>
                <path d="M4.1993677,8.49046853 C4.62673234,8.50636429 4.99645826,8.68598377 5.25862128,8.9671594 C5.51969329,9.2471649 5.67423114,9.6265009 5.66071373,10.0391847 L5.66071373,10.0391847 L5.33768302,19.9012479 C5.32486367,20.2926203 5.16237537,20.64384 4.9069093,20.9016828 C4.65336185,21.1575891 4.30832248,21.3217599 3.92702154,21.3416438 C3.38706098,21.3226946 3.00776314,21.1519655 2.74137872,20.8662624 C2.48030671,20.5862569 2.32576886,20.2069209 2.33928627,19.7942371 L2.33928627,19.7942371 L2.66231698,9.93217383 C2.67579809,9.5205982 2.85482693,9.15345069 3.1333794,8.89256737 C3.41193187,8.63168406 3.79000798,8.47706492 4.1993677,8.49046853 Z" id="矩形" stroke="#333E5E" fill="#FCFCFC" transform="translate(4.000000, 14.916711) scale(1, -1) translate(-4.000000, -14.916711) "></path>
                <path d="M27.7804698,8.4911944 C28.1997204,8.47743918 28.5825709,8.63110136 28.8639863,8.89229312 C29.144804,9.15293002 29.3241923,9.5203038 29.337683,9.93217383 L29.337683,9.93217383 L29.6607137,19.7942371 C29.6742311,20.2069209 29.5196933,20.5862569 29.2586213,20.8662624 C28.9975493,21.1462679 28.6299431,21.3269429 28.2173239,21.3423046 C27.6963499,21.3239769 27.3483533,21.1593202 27.0930907,20.9016828 C26.8376246,20.64384 26.6751363,20.2926203 26.662317,19.9012479 L26.662317,19.9012479 L26.3392863,10.0391847 C26.3257689,9.6265009 26.4803067,9.2471649 26.7413787,8.9671594 C27.0024507,8.6871539 27.3700569,8.5064789 27.7804698,8.4911944 Z" id="矩形备份-30" stroke="#333E5E" fill="#FCFCFC" transform="translate(28.000000, 14.916711) scale(1, -1) translate(-28.000000, -14.916711) "></path>
            </g>
            <g id="编组-14备份-9" transform="translate(241.000000, 883.000000) scale(1, -1) translate(-241.000000, -883.000000) translate(226.000000, 870.000000)">
                <g id="编组-18备份-3" transform="translate(1.000305, 0.000000)"></g>
            </g>
        </g>
    </g>
</svg>