<?xml version="1.0" encoding="UTF-8"?>
<svg width="32px" height="32px" viewBox="0 0 32 32" version="1.1" xmlns="http://www.w3.org/2000/svg" xmlns:xlink="http://www.w3.org/1999/xlink">
    <title>编组 4备份 22</title>
    <g id="页面-1" stroke="none" stroke-width="1" fill="none" fill-rule="evenodd">
        <g id="座位排布切图" transform="translate(-399.000000, -867.000000)" fill="#FFFFFF" stroke="#FD5751">
            <g id="编组-19备份-17" transform="translate(415.000000, 883.000000) rotate(-90.000000) translate(-415.000000, -883.000000) translate(400.000000, 868.000000)">
                <path d="M24.0262498,1.91111111 C24.6704042,1.91111111 25.2571049,2.16540035 25.6891788,2.5806005 C26.1212527,2.99580065 26.3986998,3.57191169 26.4243468,4.2155553 L26.4243468,4.2155553 L27.2761767,25.5933331 C27.3025638,26.2555493 27.0580366,26.865769 26.6413586,27.3170314 C26.2270427,27.7657355 25.6425224,28.0572796 24.9848909,28.0865115 L24.9848909,28.0865115 L3.12192022,28.0888889 C2.45917852,28.0888889 1.85917852,27.8202597 1.42486395,27.3859452 C0.993011412,26.9540926 0.724971153,26.3584278 0.721946103,25.7001537 L0.721946103,25.7001537 L1.57565324,4.2155553 C1.6013002,3.57191169 1.87874725,2.99580065 2.31082116,2.5806005 C2.74289507,2.16540035 3.32959584,1.91111111 3.97375021,1.91111111 L3.97375021,1.91111111 Z" id="矩形" stroke-width="1.2" transform="translate(14.000000, 15.000000) scale(1, -1) rotate(90.000000) translate(-14.000000, -15.000000) "></path>
                <path d="M27.5199501,13.1 C31.827117,13.1 36.1190489,13.4649961 40.3957589,14.1949271 C40.7660019,14.2581135 41.0865057,14.4501531 41.3144491,14.720295 C41.5423944,14.9904391 41.6777778,15.3386866 41.6777778,15.7142857 C41.6777778,15.9471458 41.5833926,16.1579611 41.4307923,16.3105613 C41.2891826,16.4521711 41.0974413,16.5436493 40.8836429,16.5559289 C36.3508098,15.6812208 31.9901272,15.2580017 27.5199501,15.2580017 C22.9954405,15.2580017 18.455161,15.6917347 13.8991251,16.5594674 C13.6657361,16.6039227 13.4364245,16.5495679 13.2543471,16.425752 C13.084258,16.3100883 12.955388,16.1338096 12.9029235,15.9207577 C12.9031972,15.4567044 13.0239518,15.0608612 13.2445434,14.7633335 C13.4653968,14.4654526 13.7849989,14.2737399 14.1540491,14.2137314 C18.7196985,13.4714071 23.174986,13.1 27.5199501,13.1 Z" id="矩形" stroke-width="1.2" transform="translate(27.277778, 15.000000) scale(1, -1) rotate(90.000000) translate(-27.277778, -15.000000) "></path>
                <path d="M13.9630632,21.0781709 C14.3379041,21.0947176 14.6683174,21.2535152 14.9023434,21.5009007 C15.135183,21.747032 15.2718908,22.0802411 15.2619259,22.4429696 L15.2619259,22.4429696 L14.9529743,33.6890282 C14.9433602,34.0389886 14.7928067,34.3519214 14.5571667,34.5749606 C14.3215267,34.7979998 14.0008001,34.9311453 13.659159,34.9218291 C13.2843181,34.9052824 12.9539049,34.7464848 12.7198788,34.4990993 C12.4870392,34.252968 12.3503315,33.9197589 12.3602963,33.5570304 L12.3602963,33.5570304 L12.669248,22.3109718 C12.6788621,21.9610114 12.8294155,21.6480786 13.0650555,21.4250394 C13.3006955,21.2020002 13.6214221,21.0688547 13.9630632,21.0781709 Z" id="矩形" transform="translate(13.811111, 28.000000) scale(1, -1) rotate(90.000000) translate(-13.811111, -28.000000) "></path>
                <path d="M13.6211176,-4.92046232 C13.9837493,-4.93051553 14.3126124,-4.7989293 14.5531494,-4.57507688 C14.7923103,-4.35250508 14.9433511,-4.03931883 14.9529743,-3.68902816 L14.9529743,-3.68902816 L15.2619259,7.55703037 C15.2718806,7.91938864 15.1356653,8.25228407 14.9064267,8.49860869 C14.6771882,8.74493331 14.3549263,8.90468713 14.0009865,8.92046561 C13.6272778,8.93091428 13.302802,8.79999359 13.0650555,8.5749606 C12.8294155,8.35192141 12.6788621,8.03898859 12.669248,7.68902816 L12.669248,7.68902816 L12.3602963,-3.55703037 C12.3503416,-3.91938864 12.4865569,-4.25228407 12.7157955,-4.49860869 C12.9450341,-4.74493331 13.2672959,-4.90468713 13.6211176,-4.92046232 Z" id="矩形备份-30" transform="translate(13.811111, 2.000000) scale(1, -1) rotate(90.000000) translate(-13.811111, -2.000000) "></path>
            </g>
        </g>
    </g>
</svg>