<?xml version="1.0" encoding="UTF-8"?>
<svg width="32px" height="32px" viewBox="0 0 32 32" version="1.1" xmlns="http://www.w3.org/2000/svg" xmlns:xlink="http://www.w3.org/1999/xlink">
    <title>编组 2备份 11</title>
    <g id="页面-1" stroke="none" stroke-width="1" fill="none" fill-rule="evenodd">
        <g id="座位排布切图" transform="translate(-401.000000, -867.000000)">
            <g id="编组-2备份-10" transform="translate(417.000000, 883.000000) rotate(180.000000) translate(-417.000000, -883.000000) translate(401.000000, 867.000000)">
                <rect id="矩形备份-199" fill-opacity="0" fill="#F2F4F5" x="0" y="0" width="32" height="32" rx="2"></rect>
                <g id="编组-14备份-8" transform="translate(1.000000, 3.000000)" stroke="#FD5751">
                    <g id="编组-18备份-3" transform="translate(1.000305, 0.000000)" stroke-width="1.2">
                        <path d="M22.9479404,0.933333333 C23.5925057,0.933333333 24.1795039,1.18793607 24.6116342,1.60355799 C25.0437645,2.01917991 25.321027,2.59582101 25.3461209,3.23989773 L25.3461209,3.23989773 L26.1123547,22.9065644 C26.1381562,23.5688037 25.8930896,24.1788069 25.4760128,24.6297008 C25.0612473,25.0780959 24.4763728,25.3691402 23.8186127,25.3977271 L23.8186127,25.3977271 L4.28582586,25.4 C3.62308416,25.4 3.02308416,25.1313708 2.58876959,24.6970563 C2.15686193,24.2651486 1.88880837,23.6693869 1.8858506,23.0110127 L1.8858506,23.0110127 L2.65387911,3.23989773 C2.67897301,2.59582101 2.95623545,2.01917991 3.38836577,1.60355799 C3.82049608,1.18793607 4.40749426,0.933333333 5.05205963,0.933333333 L5.05205963,0.933333333 Z" id="矩形" fill="#FFFFFF"></path>
                        <path d="M26,0.6 C26.3865993,0.6 26.7365993,0.756700338 26.9899495,1.01005051 C27.2432997,1.26340068 27.4,1.61340068 27.4,2 L27.4,2 L27.4,3 C27.4,3.38659932 27.2432997,3.73659932 26.9899495,3.98994949 C26.7365993,4.24329966 26.3865993,4.4 26,4.4 L26,4.4 L2,4.4 C1.61340068,4.4 1.26340068,4.24329966 1.01005051,3.98994949 C0.756700338,3.73659932 0.6,3.38659932 0.6,3 L0.6,3 L0.6,2 C0.6,1.61340068 0.756700338,1.26340068 1.01005051,1.01005051 C1.26340068,0.756700338 1.61340068,0.6 2,0.6 L2,0.6 L26,0.6 Z" id="矩形" fill="#FCFCFC"></path>
                    </g>
                    <path d="M3.08012828,7.65798966 C3.6350285,7.67556383 3.9993569,7.85567085 4.25862128,8.13373764 C4.51969329,8.41374314 4.67423114,8.79307913 4.66071373,9.20576289 L4.66071373,9.20576289 L4.33768302,19.0678262 C4.32420191,19.4794018 4.14517307,19.8465493 3.8666206,20.1074326 C3.58806813,20.3683159 3.20999202,20.5229351 2.79953313,20.5094918 C2.37005689,20.4935211 2.00245073,20.3128461 1.74137872,20.0328406 C1.48030671,19.7528351 1.32576886,19.3734991 1.33928627,18.9608153 L1.33928627,18.9608153 L1.66231698,9.09875206 C1.67513633,8.7073797 1.83762463,8.35616 2.0930907,8.09831724 C2.34824418,7.84078997 2.69605233,7.67616395 3.08012828,7.65798966 Z" id="矩形" fill="#FCFCFC"></path>
                    <path d="M26.7649505,7.6584605 C27.2161827,7.67818989 27.6042585,7.8369338 27.8833114,8.09593283 C28.1594631,8.35223905 28.3247907,8.7051533 28.337683,9.09875206 L28.337683,9.09875206 L28.6607137,18.9608153 C28.6742311,19.3734991 28.5196933,19.7528351 28.2586213,20.0328406 C27.9975493,20.3128461 27.6299431,20.4935211 27.2178764,20.5088626 C26.790008,20.5229351 26.4119319,20.3683159 26.1333794,20.1074326 C25.8548269,19.8465493 25.6757981,19.4794018 25.662317,19.0678262 L25.662317,19.0678262 L25.3392863,9.20576289 C25.3257689,8.79307913 25.4803067,8.41374314 25.7413787,8.13373764 C25.9987061,7.85774833 26.3595335,7.67826051 26.7649505,7.6584605 Z" id="矩形备份-30" fill="#FCFCFC"></path>
                </g>
            </g>
        </g>
    </g>
</svg>