<?xml version="1.0" encoding="UTF-8"?>
<svg width="32px" height="32px" viewBox="0 0 32 32" version="1.1" xmlns="http://www.w3.org/2000/svg" xmlns:xlink="http://www.w3.org/1999/xlink">
    <title>编组 17备份 5</title>
    <g id="页面-1" stroke="none" stroke-width="1" fill="none" fill-rule="evenodd">
        <g id="座位排布切图" transform="translate(-938.000000, -867.000000)">
            <g id="编组-17备份-5" transform="translate(954.000000, 883.000000) scale(1, -1) translate(-954.000000, -883.000000) translate(938.000000, 867.000000)">
                <rect id="矩形备份-337" fill-opacity="0" fill="#F2F4F5" x="0" y="0" width="32" height="32" rx="2"></rect>
                <g id="编组-26" transform="translate(1.000000, 3.000000)">
                    <path d="M15.1340823,0 C17.7823478,0 20.4294476,0.222211513 23.0748253,0.666496033 C24.934883,0.978892873 26.3143848,2.5443622 26.4073111,4.41022859 L26.4123077,4.61124892 L26.4123077,8.38803646 C26.4123057,8.75351131 26.3632887,9.10753795 26.2714717,9.44390133 C26.6458179,9.20580283 27.0909854,9.06857143 27.5682051,9.06857143 C28.8597018,9.06857143 29.9164479,10.0736577 29.9989212,11.3443079 L30.0041026,11.5044689 L30.0041026,19.2555311 C30.0041026,20.6008401 28.9135141,21.6914286 27.5682051,21.6914286 C27.1497538,21.6914286 26.7559464,21.5859154 26.4119368,21.400043 L26.4123077,21.7120034 C26.4123077,24.0427815 24.6402133,25.9633363 22.4123077,25.9633363 C22.1900386,25.9633363 21.9683339,25.94367 21.7494916,25.9046334 L21.5094202,25.853723 L20.1278439,25.52029 L19.8116286,25.4522911 L19.4521098,25.3846035 C19.3915029,25.3741605 19.3304394,25.3641325 19.2687494,25.3545131 L18.8897345,25.3016504 L18.4875383,25.258293 L18.0540134,25.2241387 C17.9786959,25.2191964 17.9017336,25.214625 17.8229568,25.2104182 L17.3271629,25.1895015 L16.7796724,25.1770319 L15.8436834,25.1735044 L15.0567743,25.1816739 L14.2522044,25.1979757 C13.9992348,25.2047856 13.7603871,25.2130882 13.5323659,25.223234 L12.8774864,25.2595511 C12.0388316,25.3162808 11.3206734,25.4081069 10.512103,25.5574544 L9.8854276,25.6806008 L9.20507498,25.82742 L8.45127251,26.0000144 C6.26377492,26.5109464 4.13443789,25.0215488 3.67833154,22.7278767 C3.63996871,22.5349573 3.61429558,22.3395654 3.60144269,22.1431258 L3.59179487,21.8478587 L3.59216572,21.400043 C3.24815619,21.5859154 2.85434877,21.6914286 2.43589744,21.6914286 C1.14440079,21.6914286 0.0876546273,20.6863423 0.00518132892,19.4156921 L0,19.2555311 L0,11.5044689 C0,10.1591599 1.09058843,9.06857143 2.43589744,9.06857143 C2.91061423,9.06857143 3.35361423,9.20436711 3.72817132,9.43923235 C3.68725765,9.2922731 3.65623238,9.14140722 3.63372581,8.98719437 C3.61511432,8.85967021 3.60268218,8.73135844 3.59646203,8.60270878 L3.59179487,8.40953708 L3.59179487,4.62967313 C3.591787,2.66979463 5.01181627,0.99856935 6.94598309,0.682141491 C9.7249565,0.227504075 12.4544556,0 15.1340823,0 Z" id="形状结合" fill="#0DAF9C" fill-rule="nonzero"></path>
                    <g id="编组-25" transform="translate(1.000000, 0.193971)" fill="#FBFFFF">
                        <path d="M6.14900469,1.41308069 C8.86090068,1.00837972 11.5225932,0.80602923 14.1340823,0.80602923 C16.712366,0.80602923 19.2897807,1.00326661 21.8663265,1.39774138 C23.3308002,1.62195809 24.4123077,2.88164877 24.4123077,4.36318726 L24.4123077,8.24753839 C24.4122931,9.90438457 23.0691539,11.2475238 21.4123077,11.2475238 C21.2770258,11.2475238 21.1418989,11.2383732 21.0078521,11.2201346 C18.7546266,10.9135575 16.46337,10.760269 14.1340823,10.760269 C11.7539034,10.760269 9.37301935,10.9203289 6.99143008,11.2404487 C5.3493491,11.4611541 3.83925282,10.3089141 3.6185338,8.66683492 C3.60072775,8.53436363 3.59179487,8.40085041 3.59179487,8.26718778 L3.59179487,4.38021198 C3.59180633,2.89437332 4.67943963,1.63238645 6.14900469,1.41308069 Z" id="矩形"></path>
                        <path d="M5.77958514,12.8910655 C8.6510195,12.0887748 10.2116608,11.9143987 14.2073102,11.9059034 C18.2029597,11.8974081 19.4721269,12.0771858 22.131818,12.8562986 C23.4402392,13.2395972 24.4123077,14.7443514 24.4123077,16.2132819 L24.4123077,21.5180326 C24.4123077,23.3136942 23.0691586,24.5632646 21.4123077,24.5632646 C21.1945103,24.5632646 20.9773606,24.5375599 20.7646984,24.4866049 C18.7881165,24.0130057 18.1200083,23.9448634 14.4867074,23.982307 C10.8534065,24.0197505 9.64978358,24.0595215 7.22382511,24.6261524 C5.60415814,25.0044567 4.00818887,24.0942326 3.65912773,22.3388705 C3.61436581,22.1137712 3.59179487,21.8841553 3.59179487,21.6538879 L3.59179487,16.2577301 C3.59179487,14.7746805 4.45450663,13.261298 5.77958514,12.8910655 Z" id="矩形备份-140"></path>
                        <rect id="矩形" x="25.1323077" y="9.87460066" width="2.87179487" height="10.6228571" rx="1.43589744"></rect>
                        <rect id="矩形备份-153" x="1.8189894e-12" y="9.87460066" width="2.87179487" height="10.6228571" rx="1.43589744"></rect>
                    </g>
                </g>
            </g>
        </g>
    </g>
</svg>