<?xml version="1.0" encoding="UTF-8"?>
<svg width="32px" height="32px" viewBox="0 0 32 32" version="1.1" xmlns="http://www.w3.org/2000/svg" xmlns:xlink="http://www.w3.org/1999/xlink">
    <title>编组 17备份 24</title>
    <g id="页面-1" stroke="none" stroke-width="1" fill="none" fill-rule="evenodd">
        <g id="座位排布切图" transform="translate(-938.000000, -814.000000)">
            <g id="编组-4备份-15" transform="translate(954.000000, 830.000000) rotate(-90.000000) translate(-954.000000, -830.000000) translate(939.000000, 814.000000)">
                <path d="M20.9486774,0 C22.7344326,0 23.1820731,1.44764055 23.1820731,3.23339567 C23.1820731,3.41432347 23.167159,3.59196892 23.1383463,3.76512899 L24.5770196,3.76494192 C27.3384433,3.76458284 29.5773106,6.00286798 29.5776697,8.7642917 C29.5776826,8.86392303 29.5747177,8.96353248 29.5687788,9.06298665 L29.1376507,16.282732 L29.1376507,16.282732 L29.5538248,22.9081792 C29.726941,25.6641711 27.6331065,28.0386825 24.8771146,28.2117987 C24.7891323,28.2173253 24.7010192,28.220524 24.6128678,28.2213916 C24.3836048,28.2236481 24.2582228,28.2253519 24.2367217,28.2265031 L24.0354572,28.2318876 L23.138184,28.2325989 C23.1670525,28.4063107 23.1820731,28.5847034 23.1820731,28.7666043 C23.1820731,30.3771584 23.0002887,31.7276216 21.3530778,31.9694296 L21.1681754,31.9916917 L20.9486774,32 L10.6544402,32 C8.86868504,32 8.42104449,30.5523594 8.42104449,28.7666043 C8.42104449,28.5846879 8.43612207,28.4060897 8.46524491,28.2320327 L8.13036179,28.2318876 C7.71924544,28.2318876 7.20872013,28.2294001 6.59878587,28.2244251 L6.36187717,28.2318876 L4.31828559,28.2318876 C2.4331733,28.2318876 0.133027487,26.5654639 0.00482235858,16.282732 C-0.12338277,6 2.33176876,3.85859199 4.14247986,3.76890784 L5.33085676,3.76425167 L6.3771849,3.76425167 C6.70491163,3.76425167 7.40386031,3.80125991 7.92209546,3.77079445 L8.14518408,3.76425167 L8.46445984,3.76454251 C8.43590077,3.59173242 8.42104449,3.41429898 8.42104449,3.23339567 C8.42104449,1.62284164 8.60282893,0.27237838 10.2500398,0.0305704102 L10.4349422,0.008308337 L10.6544402,0 L20.9486774,0 Z" id="形状" fill="#0DAF9C" fill-rule="nonzero"></path>
                <g id="编组-3" transform="translate(1.004822, 1.000000)" fill="#FBFFFF">
                    <g id="编组-25" transform="translate(14.693971, 15.000000) scale(1, -1) rotate(-90.000000) translate(-14.693971, -15.000000) translate(-0.306029, 8.500000)">
                        <rect id="矩形备份-4" x="27.1323077" y="0.497457802" width="2.87179487" height="12" rx="1.43589744"></rect>
                        <rect id="矩形备份-154" x="9.32587341e-13" y="0.497457802" width="2.87179487" height="12" rx="1.43589744"></rect>
                    </g>
                    <path d="M3.24285714,4 C3.68379894,4 4.04125288,4.35745395 4.04125288,4.79839574 C4.04125288,4.86900373 4.03188649,4.93929974 4.01338574,5.00744084 C3.08065239,8.44544401 2.61428571,11.8771271 2.61428571,15.3024902 C2.61428571,18.5405672 3.07566842,21.7723917 3.99843383,24.9979637 C4.117807,25.415256 3.87630067,25.8503119 3.45900974,25.9696897 C3.3887195,25.9897982 3.31596713,26 3.24285714,26 C2.53200919,26 1.88931531,25.5770694 1.6080573,24.9242304 C0.736019101,22.899909 0.3,19.6926623 0.3,15.3024902 C0.3,10.7759957 0.763517812,7.35832371 1.69055344,5.04947427 C1.94512378,4.41547648 2.55965933,4 3.24285714,4 Z" id="矩形"></path>
                    <path d="M8.73372628,4 L23.231585,4 C25.4407244,3.99999941 27.2315856,5.79086068 27.2315856,8 C27.2315856,8.17639544 27.2199174,8.3525977 27.1966573,8.52745284 C26.8961885,10.7861961 26.7459541,13.0445419 26.7459541,15.3024902 C26.7459541,17.3569213 26.8846243,19.4109855 27.1619647,21.4646829 C27.4576114,23.6539487 25.9225312,25.6683693 23.7332656,25.9640174 C23.5558325,25.9879788 23.3769909,26 23.1979473,26 L8.68478486,26 C6.74956665,26.0000072 5.09188948,24.6146185 4.74832,22.7101423 C4.24944,19.944748 4,17.4755307 4,15.3024902 C4,13.0684055 4.26365121,10.4095079 4.79095363,7.32579741 C5.11945913,5.40469179 6.78473611,4 8.73372628,4 Z" id="矩形备份-3"></path>
                </g>
            </g>
        </g>
    </g>
</svg>