<?xml version="1.0" encoding="UTF-8"?>
<svg width="56px" height="48px" viewBox="0 0 56 48" version="1.1" xmlns="http://www.w3.org/2000/svg" xmlns:xlink="http://www.w3.org/1999/xlink">
    <title>主席台</title>
    <g id="页面-1" stroke="none" stroke-width="1" fill="none" fill-rule="evenodd">
        <g id="座位排布切图" transform="translate(-213.000000, -480.000000)" fill-rule="nonzero">
            <g id="主席台" transform="translate(213.000000, 480.000000)">
                <path d="M6.11367275,18.2880859 L50.4401042,18.2880859 L50.4401042,45.6719333 C50.4401042,46.9442055 49.719082,47.9755859 48.8296561,47.9755859 L7.71721887,47.9755859 C6.82779298,47.9755859 6.10677083,46.9442055 6.10677083,45.6719333 L6.11367275,18.2880859 Z" id="路径" fill="#B7D9F6"></path>
                <path d="M20.8215243,0.756835938 C19.8637997,0.752271786 18.9950974,1.35082559 18.6110778,2.27990546 C18.2270581,3.20898534 18.4011779,4.29087347 19.0541321,5.03281168 C14.0252955,9.84818874 14.6744783,19.3901347 14.7055397,19.8341756 C14.7234663,20.0906216 14.9255185,20.2887857 15.1683541,20.2880859 L15.2304768,20.2880859 C15.4873596,20.2653795 15.6787954,20.0274065 15.6591238,19.755235 C15.6591238,19.65327 14.9975165,10.1047457 19.8493033,5.63473381 C20.7445178,6.04984165 21.7879469,5.84980127 22.4889021,5.12868469 C23.1898573,4.40756811 23.4088379,3.30888852 23.042865,2.34931669 C22.676892,1.38974486 21.7987997,0.760250206 20.8215243,0.756835938 Z" id="路径" fill="#999999"></path>
                <path d="M3.8251,13.0693359 L52.721775,13.0693359 C52.8331481,13.0689942 52.94117,13.167368 53.0276733,13.3479135 L55.6960482,18.7983293 C55.8615242,19.1336237 55.9262434,19.7019996 55.8572609,20.2141298 C55.7882784,20.7262599 55.6007557,21.0695841 55.3901499,21.0693359 L1.15672514,21.0693359 C0.946119286,21.0695841 0.758596631,20.7262599 0.689614111,20.2141298 C0.620631591,19.7019996 0.685350758,19.1336237 0.850826829,18.7983293 L3.51920168,13.3479135 C3.60625623,13.1699146 3.7139207,13.0718663 3.8251,13.0693359 Z" id="路径" fill="#9CC0DF"></path>
            </g>
        </g>
    </g>
</svg>