<?xml version="1.0" encoding="UTF-8"?>
<svg width="37px" height="32px" viewBox="0 0 37 32" version="1.1" xmlns="http://www.w3.org/2000/svg" xmlns:xlink="http://www.w3.org/1999/xlink">
    <title>矩形备份 517</title>
    <g id="页面-1" stroke="none" stroke-width="1" fill="none" fill-rule="evenodd">
        <g id="座位排布切图" transform="translate(-344.000000, -1491.000000)" fill="#A6A7B9">
            <g id="编组-10" transform="translate(404.000000, 1507.000000) rotate(-90.000000) translate(-404.000000, -1507.000000) translate(392.000000, 1447.000000)">
                <path d="M13,0 C14.1045695,-2.02906125e-16 15,0.8954305 15,2 L15,118 C15,119.104569 14.1045695,120 13,120 L2,120 C0.8954305,120 1.3527075e-16,119.104569 0,118 L0,2 C-1.3527075e-16,0.8954305 0.8954305,2.02906125e-16 2,0 L13,0 Z M19,12 C20.1045695,12 21,12.8954305 21,14 L21,18 L21.5051546,18 C22.6097241,18 23.5051546,18.8954305 23.5051546,20 L23.5051546,99 C23.5051546,100.104569 22.6097241,101 21.5051546,101 L21,101 L21,107 C21,108.104569 20.1045695,109 19,109 L18,109 C16.8954305,109 16,108.104569 16,107 L16,14 C16,12.8954305 16.8954305,12 18,12 L19,12 Z" id="形状结合"></path>
            </g>
        </g>
    </g>
</svg>