<?xml version="1.0" encoding="UTF-8"?>
<svg width="32px" height="32px" viewBox="0 0 32 32" version="1.1" xmlns="http://www.w3.org/2000/svg" xmlns:xlink="http://www.w3.org/1999/xlink">
    <title>编组 8备份 16</title>
    <g id="页面-1" stroke="none" stroke-width="1" fill="none" fill-rule="evenodd">
        <g id="座位排布切图" transform="translate(-573.000000, -812.000000)">
            <g id="编组-2备份-14" transform="translate(589.100000, 827.700000) scale(-1, 1) rotate(-360.000000) translate(-589.100000, -827.700000) translate(574.600000, 812.700000)">
                <path d="M1.4967638,20.3032227 C1.4967638,20.3032227 1.4967638,22.2060918 1.4967638,26.0118302 C1.4967638,27.6588529 3.03759745,29 4.57955634,29 L24.4781686,29 C26.0201275,29 27.4490586,27.6588529 27.4490586,26.0118302 L27.4490586,20.3032227 C28.8441643,20.1345989 29,18.5889823 29,17.0556825 L29,5.34078962 C29,3.69376688 28.73887,2.84708524 26.9636595,2.35261979 C25.1884489,1.85815433 20.7453431,1 14.5270268,1 C8.30871047,1 4.02122301,1.84889879 2.09039414,2.35261979 C0.159565265,2.85634078 0,3.68984539 0,5.34078962 L0,17.0556825 C0,18.5889823 0.462554934,19.9869764 1.4967638,20.3032227 Z" id="路径" fill="#435587" fill-rule="nonzero" transform="translate(14.500000, 15.000000) scale(-1, -1) rotate(-270.000000) translate(-14.500000, -15.000000) "></path>
                <path d="M25.4623388,2.97382923 C27.1191931,2.97382923 27.4221642,4.84314575 27.4221642,6.5 L27.4221642,24.0301211 C27.4221642,25.6869753 27.1191931,27.1028531 25.4623388,27.1028531 L19.7147505,27.1031456 C19.5089149,26.5203966 18.9532187,26.1028531 18.3,26.1028531 L5.82419235,26.1028531 C5.09812759,26.1028494 4.47630091,25.5828263 4.34785475,24.8682134 C3.76496785,21.6253098 3.47352439,18.3359053 3.47352439,15 C3.47352439,12.0932091 3.7714853,8.83622656 4.3674071,5.2290524 C4.48703738,4.50478974 5.11327121,3.97352439 5.84734737,3.97352439 L18.3,3.97352439 L18.3,3.97352439 C18.9529955,3.97352439 19.5085351,3.55626617 19.7145394,2.97382923 L25.4623388,2.97382923 Z" id="路径" fill="#FFFFFF"></path>
            </g>
        </g>
    </g>
</svg>