<?xml version="1.0" encoding="UTF-8"?>
<svg width="32px" height="32px" viewBox="0 0 32 32" version="1.1" xmlns="http://www.w3.org/2000/svg" xmlns:xlink="http://www.w3.org/1999/xlink">
    <title>编组 13</title>
    <g id="页面-1" stroke="none" stroke-width="1" fill="none" fill-rule="evenodd">
        <g id="座位排布切图" transform="translate(-572.000000, -920.000000)">
            <g id="编组-13" transform="translate(572.000000, 920.000000)">
                <rect id="矩形备份-247" fill-opacity="0" fill="#F2F4F5" x="0" y="0" width="32" height="32" rx="2"></rect>
                <g id="编组-15备份" transform="translate(16.000000, 16.000000) rotate(-180.000000) translate(-16.000000, -16.000000) translate(2.000000, 3.000000)" fill-rule="nonzero">
                    <path d="M2.28750452,19.0248326 L2.28750452,22.7769979 C2.28750452,24.3004354 3.44137848,25.5409487 4.85841668,25.5409487 L23.1449572,25.5409487 C24.5619954,25.5409487 25.7158694,24.3004354 25.7158694,22.7769979 L25.7158694,19.3577018 C26.9979516,19.2017308 28,17.6972656 28,16.2790179 L28,2.76395089 C28,1.24051339 26.846126,-1.20792265e-13 25.4290878,-1.20792265e-13 L2.57091216,-1.20792265e-13 C1.15387396,-1.20792265e-13 5.32907052e-15,1.23688616 5.32907052e-15,2.76395089 L5.32907052e-15,16.2790179 C5.32907052e-15,17.6972656 1.00542234,19.205358 2.28750452,19.3577018 L2.28750452,19.0248326 Z" id="路径" fill="#333E5E" transform="translate(14.000000, 12.770474) rotate(-180.000000) translate(-14.000000, -12.770474) "></path>
                    <path d="M22.8202238,19.4471161 L5.44606901,19.4471161 C4.36226219,19.4471161 3.63426335,18.4822724 3.63426335,17.2961675 L3.63757774,14.5617289 C4.89704744,14.4057579 5.64389294,12.9412913 5.64389294,11.5266708 L5.64389294,1.34148559 L22.4909613,1.34148559 L22.4909613,11.5266708 C22.4909613,12.9485458 23.3097349,14.4130124 24.569229,14.5653561 L24.569229,17.2961675 C24.572519,18.4858996 23.9040306,19.4471161 22.8202238,19.4471161 Z" id="路径" fill="#FEFEFE" transform="translate(14.101746, 10.394301) rotate(-180.000000) translate(-14.101746, -10.394301) "></path>
                </g>
            </g>
        </g>
    </g>
</svg>