<?xml version="1.0" encoding="UTF-8"?>
<svg width="60px" height="48px" viewBox="0 0 60 48" version="1.1" xmlns="http://www.w3.org/2000/svg" xmlns:xlink="http://www.w3.org/1999/xlink">
    <title>桌子_1</title>
    <g id="页面-1" stroke="none" stroke-width="1" fill="none" fill-rule="evenodd">
        <g id="座位排布切图" transform="translate(-542.000000, -338.000000)" fill-rule="nonzero">
            <g id="桌子_1" transform="translate(542.000000, 348.000000)">
                <path d="M5.93333333,5 L9.06666667,5 C9.68888889,5 10,5.28183006 10,5.84549019 L10,37.1545098 C10,37.7181699 9.68888889,38 9.06666667,38 L5.93333333,38 C5.31111111,38 5,37.7181699 5,37.1545098 L5,5.84549019 C5,5.28183006 5.31111111,5 5.93333333,5 Z" id="路径" fill="#CBB1A6"></path>
                <path d="M14.9333333,6 L18.0666667,6 C18.6888889,6 19,6.26133333 19,6.784 L19,27.216 C19,27.7386667 18.6888889,28 18.0666667,28 L14.9333333,28 C14.3111111,28 14,27.7386667 14,27.216 L14,6.784 C14,6.26133333 14.3111111,6 14.9333333,6 Z" id="路径" fill="#CBB1A6"></path>
                <path d="M51.9333333,5 L55.0666667,5 C55.6888889,5 56,5.28183006 56,5.84549019 L56,37.1545098 C56,37.7181699 55.6888889,38 55.0666667,38 L51.9333333,38 C51.3111111,38 51,37.7181699 51,37.1545098 L51,5.84549019 C51,5.28183006 51.3111111,5 51.9333333,5 Z" id="路径" fill="#CBB1A6"></path>
                <path d="M42.9333333,6 L46.0666667,6 C46.6888889,6 47,6.26133333 47,6.784 L47,27.216 C47,27.7386667 46.6888889,28 46.0666667,28 L42.9333333,28 C42.3111111,28 42,27.7386667 42,27.216 L42,6.784 C42,6.26133333 42.3111111,6 42.9333333,6 Z" id="路径" fill="#CBB1A6"></path>
                <path d="M0.844970416,0 L59.1550296,0 C59.7183432,0 60,0.459607341 60,1.37882202 L60,7.62117804 C60,8.54039273 59.7183432,9 59.1550296,9 L0.844970416,9 C0.281656805,9 0,8.54039268 0,7.62117804 L0,1.37882202 C0,0.459607341 0.281656805,0 0.844970416,0 Z" id="路径" fill="#AC8C7E"></path>
            </g>
        </g>
    </g>
</svg>