<?xml version="1.0" encoding="UTF-8"?>
<svg width="49px" height="45px" viewBox="0 0 49 45" version="1.1" xmlns="http://www.w3.org/2000/svg" xmlns:xlink="http://www.w3.org/1999/xlink">
    <title>编组 28</title>
    <g id="页面-1" stroke="none" stroke-width="1" fill="none" fill-rule="evenodd">
        <g id="座位排布切图" transform="translate(-211.000000, -108.000000)">
            <g id="编组-28" transform="translate(211.000000, 112.000000)">
                <g id="编组-49备份-2" transform="translate(8.777778, 0.000000)" fill="#EBEBEB">
                    <path d="M29.9349867,4.02104644 L29.9349867,28.8783951 L29.9349867,28.8783951 C29.9349867,30.3051307 28.6366125,31.4617284 27.0349867,31.4617284 L3.83498672,31.4617284 C2.23336094,31.4617284 0.934986716,30.3051307 0.934986716,28.8783951 L0.934986716,4.02104644 C0.934986716,2.05528937 2.52854769,0.461728395 4.49430476,0.461728395 L26.3756687,0.461728395 C28.3414257,0.461728395 29.9349867,2.05528937 29.9349867,4.02104644 Z" id="路径"></path>
                </g>
                <rect id="矩形" fill="#7AA4CA" x="41.9555556" y="1.95555556" width="6.5" height="6.5" rx="0.977777778"></rect>
                <rect id="矩形备份-482" fill="#7AA4CA" transform="translate(13.832302, 37.383333) rotate(-90.000000) translate(-13.832302, -37.383333) " x="10.5823018" y="34.1333333" width="6.5" height="6.5" rx="0.977777778"></rect>
                <rect id="矩形备份-479" fill="#7AA4CA" x="0" y="1.95555556" width="6.5" height="6.5" rx="0.977777778"></rect>
                <rect id="矩形备份-477" fill="#7AA4CA" x="41.9555556" y="12.6888889" width="6.5" height="6.5" rx="0.977777778"></rect>
                <rect id="矩形备份-483" fill="#7AA4CA" transform="translate(24.565635, 37.383333) rotate(-90.000000) translate(-24.565635, -37.383333) " x="21.3156352" y="34.1333333" width="6.5" height="6.5" rx="0.977777778"></rect>
                <rect id="矩形备份-480" fill="#7AA4CA" x="0" y="12.6888889" width="6.5" height="6.5" rx="0.977777778"></rect>
                <rect id="矩形备份-478" fill="#7AA4CA" x="41.9555556" y="23.4222222" width="6.5" height="6.5" rx="0.977777778"></rect>
                <rect id="矩形备份-484" fill="#7AA4CA" transform="translate(35.298969, 37.383333) rotate(-90.000000) translate(-35.298969, -37.383333) " x="32.0489685" y="34.1333333" width="6.5" height="6.5" rx="0.977777778"></rect>
                <rect id="矩形备份-481" fill="#7AA4CA" x="0" y="23.4222222" width="6.5" height="6.5" rx="0.977777778"></rect>
            </g>
        </g>
    </g>
</svg>