<?xml version="1.0" encoding="UTF-8"?>
<svg width="32px" height="32px" viewBox="0 0 32 32" version="1.1" xmlns="http://www.w3.org/2000/svg" xmlns:xlink="http://www.w3.org/1999/xlink">
    <title>矩形备份 510</title>
    <g id="页面-1" stroke="none" stroke-width="1" fill="none" fill-rule="evenodd">
        <g id="座位排布切图" transform="translate(-346.000000, -1083.000000)">
            <path d="M376,1083 C377.104569,1083 378,1083.89543 378,1085 L378,1239 C378,1240.10457 377.104569,1241 376,1241 L228,1241 C226.895431,1241 226,1240.10457 226,1239 L226,1085 C226,1083.89543 226.895431,1083 228,1083 L376,1083 Z M344,1115 L260,1115 C258.895431,1115 258,1115.89543 258,1117 L258,1117 L258,1207 C258,1208.10457 258.895431,1209 260,1209 L260,1209 L344,1209 C345.104569,1209 346,1208.10457 346,1207 L346,1207 L346,1117 C346,1115.89543 345.104569,1115 344,1115 L344,1115 Z" id="形状结合" fill="#FCFCFC"></path>
            <path d="M368,1091 C369.104569,1091 370,1091.89543 370,1093 L370,1231 C370,1232.10457 369.104569,1233 368,1233 L236,1233 C234.895431,1233 234,1232.10457 234,1231 L234,1093 C234,1091.89543 234.895431,1091 236,1091 L368,1091 Z M352.003164,1107 L251.996836,1107 C250.944142,1107 250.081705,1107.8155 250.005477,1108.84988 L250,1108.99907 L250,1215.00093 C250,1216.0548 250.814587,1216.9182 251.84781,1216.99452 L251.996836,1217 L352.003164,1217 C353.055858,1217 353.918295,1216.1845 353.994523,1215.15012 L354,1215.00093 L354,1108.99907 C354,1107.9452 353.185413,1107.0818 352.15219,1107.00548 L352.003164,1107 Z" id="形状" fill="#E4E8EB"></path>
        </g>
    </g>
</svg>